<svg xmlns="http://www.w3.org/2000/svg" xmlns:xlink="http://www.w3.org/1999/xlink" viewBox="0 0 1440 900"><defs><style>.a{clip-path:url(#f);}.b{fill:#04040c;opacity:0.69;}.c{fill:#191919;}.d{fill:red;}.e,.f{fill:#fff;}.e{font-size:10px;font-family:Arial-BoldMT, Arial;font-weight:700;}.f{font-size:18px;font-family:ArialMT, Arial;}.g{fill:#1c1c1c;}.h{filter:url(#c);}.i{filter:url(#a);}</style><filter id="a" x="286.5" y="148.5" width="820" height="550.6" filterUnits="userSpaceOnUse"><feOffset input="SourceAlpha"/><feGaussianBlur stdDeviation="49.5" result="b"/><feFlood flood-color="red" flood-opacity="0.2"/><feComposite operator="in" in2="b"/><feComposite in="SourceGraphic"/></filter><filter id="c" x="433.5" y="244" width="526" height="56.5" filterUnits="userSpaceOnUse"><feOffset dy="2" input="SourceAlpha"/><feGaussianBlur stdDeviation="0.5" result="d"/><feFlood flood-color="red" flood-opacity="0.2"/><feComposite operator="in" in2="d"/><feComposite in="SourceGraphic"/></filter><clipPath id="f"><rect width="1440" height="900"/></clipPath></defs><g id="e" class="a"><rect class="g" width="1440" height="900"/><path class="b" d="M0,0H1440V900H0Z"/><g class="i" transform="matrix(1, 0, 0, 1, 0, 0)"><path class="c" d="M0,0H523V253.6H0Z" transform="translate(435 297)"/></g><g class="h" transform="matrix(1, 0, 0, 1, 0, 0)"><path class="c" d="M0,0H523V53H0Z" transform="translate(435 244)"/></g><g transform="translate(-151 18.999)"><path class="d" d="M4,0H116a4,4,0,0,1,4,4V36a4,4,0,0,1-4,4H4a4,4,0,0,1-4-4V4A4,4,0,0,1,4,0Z" transform="translate(787 385)"/><text class="e" transform="translate(847 409)"><tspan x="-7.5" y="0">OK</tspan></text></g><text class="f" transform="translate(590 279)"><tspan x="0" y="0">SIGN OUT SUCCESSFUL</tspan></text></g></svg>