<svg xmlns="http://www.w3.org/2000/svg" xmlns:xlink="http://www.w3.org/1999/xlink" viewBox="0 0 1440 900"><defs><style>.a{clip-path:url(#f);}.b{fill:#04040c;opacity:0.49;}.c{fill:#191919;}.d,.e,.g{fill:#fff;}.d{stroke:red;stroke-linecap:round;stroke-width:3px;}.f{fill:#050508;font-size:10px;font-family:Arial-BoldMT, Arial;font-weight:700;}.g{font-size:18px;font-family:ArialMT, Arial;}.h{filter:url(#c);}.i{filter:url(#a);}</style><filter id="a" x="286.5" y="148.5" width="820" height="550.6" filterUnits="userSpaceOnUse"><feOffset input="SourceAlpha"/><feGaussianBlur stdDeviation="49.5" result="b"/><feFlood flood-color="red" flood-opacity="0.2"/><feComposite operator="in" in2="b"/><feComposite in="SourceGraphic"/></filter><filter id="c" x="433.5" y="244" width="526" height="56.5" filterUnits="userSpaceOnUse"><feOffset dy="2" input="SourceAlpha"/><feGaussianBlur stdDeviation="0.5" result="d"/><feFlood flood-color="red" flood-opacity="0.2"/><feComposite operator="in" in2="d"/><feComposite in="SourceGraphic"/></filter><clipPath id="f"><rect width="1440" height="900"/></clipPath></defs><g id="e" class="a"><path class="b" d="M0,0H1440V900H0Z"/><g class="i" transform="matrix(1, 0, 0, 1, 0, 0)"><path class="c" d="M0,0H523V253.6H0Z" transform="translate(435 297)"/></g><g class="h" transform="matrix(1, 0, 0, 1, 0, 0)"><path class="c" d="M0,0H523V53H0Z" transform="translate(435 244)"/></g><path class="d" d="M7.778,9.192,1.414,15.557,0,14.142,6.364,7.778,0,1.414,1.414,0,7.778,6.364,14.142,0l1.415,1.414L9.192,7.778l6.364,6.364-1.415,1.415Z" transform="translate(910 262.5)"/><g transform="translate(-151 48)"><path class="e" d="M4,0H116a4,4,0,0,1,4,4V36a4,4,0,0,1-4,4H4a4,4,0,0,1-4-4V4A4,4,0,0,1,4,0Z" transform="translate(787 385)"/><text class="f" transform="translate(847 409)"><tspan x="-24.167" y="0">SIGN OUT</tspan></text></g><path class="e" d="M0,414.6v-7.574c0-8.334,13.635-15.152,30.3-15.152s30.3,6.818,30.3,15.152V414.6Zm15.148-45.448A15.15,15.15,0,1,1,30.3,384.3,15.151,15.151,0,0,1,15.148,369.151Z" transform="translate(665.999 -9.599)"/><text class="g" transform="translate(561 279)"><tspan x="0" y="0">YOU ARE ABOUT TO SIGN OUT!</tspan></text></g></svg>