<svg xmlns="http://www.w3.org/2000/svg" xmlns:xlink="http://www.w3.org/1999/xlink" viewBox="0 0 575 296"><defs><style>.a{fill:none;}.b{clip-path:url(#c);}.c{clip-path:url(#a);}.d{fill:#5a5a5a;font-size:10px;letter-spacing:0.012em;}.d,.l,.m{font-family:ArialMT, Arial;}.e{fill:#4faaf8;}.f{fill:#fff;}.g{fill:#262424;}.h{fill:red;}.i{fill:#222;}.j,.l,.m{fill:#191919;}.k{fill:#04040c;}.l,.m{font-size:14px;}.l{letter-spacing:0.019em;}.n{fill:#eaeaea;}</style><clipPath id="a"><rect class="a" width="526" height="131"/></clipPath><clipPath id="c"><rect width="575" height="296"/></clipPath></defs><g id="b" class="b"><rect class="n" width="575" height="296"/><g class="c" transform="translate(24 94)"><g transform="translate(-24 -94)"><text class="d" transform="translate(264 207)"><tspan x="0" y="0">Hex</tspan><tspan x="0" y="16">#262424</tspan></text><text class="d" transform="translate(422 207)"><tspan x="0" y="0">Hex</tspan><tspan x="0" y="16">#FF0000</tspan></text><text class="d" transform="translate(344 207)"><tspan x="0" y="0">Hex</tspan><tspan x="0" y="16">#4FAAF8</tspan></text><text class="d" transform="translate(502 207)"><tspan x="0" y="0">Hex</tspan><tspan x="0" y="16">#FFFFFF</tspan></text><text class="d" transform="translate(184 207)"><tspan x="0" y="0">Hex</tspan><tspan x="0" y="16">#222222</tspan></text><text class="d" transform="translate(104 207)"><tspan x="0" y="0">Hex</tspan><tspan x="0" y="16">#191919</tspan></text><text class="d" transform="translate(24 207)"><tspan x="0" y="0">Hex</tspan><tspan x="0" y="16">#04040C</tspan></text><text class="d" transform="translate(344 103)"><tspan x="0" y="0">Cornfl. Bl.</tspan></text><text class="d" transform="translate(502 103)"><tspan x="0" y="0">White</tspan></text><text class="d" transform="translate(264 103)"><tspan x="0" y="0">Nero</tspan></text><text class="d" transform="translate(422 103)"><tspan x="0" y="0">Red</tspan></text><text class="d" transform="translate(184 103)"><tspan x="0" y="0">Nero</tspan></text><text class="d" transform="translate(104 103)"><tspan x="0" y="0">Nero</tspan></text><text class="d" transform="translate(24 103)"><tspan x="0" y="0">B. Russian</tspan></text><path class="e" d="M48,40.77c0,.276,0,.552,0,.828,0,.232,0,.465-.01.7a10.115,10.115,0,0,1-.134,1.518,5.106,5.106,0,0,1-.476,1.444,4.85,4.85,0,0,1-2.122,2.122,5.109,5.109,0,0,1-1.443.476,10.12,10.12,0,0,1-1.518.134c-.233.006-.465.009-.7.01-.276,0-.552,0-.828,0H7.23c-.276,0-.552,0-.828,0-.233,0-.465,0-.7-.01a10.12,10.12,0,0,1-1.518-.134,5.109,5.109,0,0,1-1.443-.476A4.853,4.853,0,0,1,.621,45.257a5.131,5.131,0,0,1-.476-1.444A10.114,10.114,0,0,1,.012,42.3C.006,42.064,0,41.831,0,41.6c0-.276,0-.552,0-.828V7.23c0-.276,0-.552,0-.828,0-.233,0-.465.01-.7A10.119,10.119,0,0,1,.146,4.186,5.129,5.129,0,0,1,.621,2.743,4.853,4.853,0,0,1,2.743.621,5.109,5.109,0,0,1,4.186.146,10.12,10.12,0,0,1,5.7.012C5.936.006,6.169,0,6.4,0c.276,0,.552,0,.828,0H40.771c.276,0,.552,0,.828,0,.232,0,.465,0,.7.01a10.12,10.12,0,0,1,1.518.134,5.109,5.109,0,0,1,1.443.476,4.85,4.85,0,0,1,2.122,2.122,5.1,5.1,0,0,1,.476,1.443A10.12,10.12,0,0,1,47.988,5.7c.006.232.009.465.01.7,0,.276,0,.552,0,.828V40.77Z" transform="translate(344 121)"/><path class="f" d="M48,40.77c0,.276,0,.552,0,.828,0,.232,0,.465-.01.7a10.115,10.115,0,0,1-.134,1.518,5.106,5.106,0,0,1-.476,1.444,4.85,4.85,0,0,1-2.122,2.122,5.109,5.109,0,0,1-1.443.476,10.12,10.12,0,0,1-1.518.134c-.233.006-.465.009-.7.01-.276,0-.552,0-.828,0H7.23c-.276,0-.552,0-.828,0-.233,0-.465,0-.7-.01a10.12,10.12,0,0,1-1.518-.134,5.109,5.109,0,0,1-1.443-.476A4.853,4.853,0,0,1,.621,45.257a5.131,5.131,0,0,1-.476-1.444A10.114,10.114,0,0,1,.012,42.3C.006,42.064,0,41.831,0,41.6c0-.276,0-.552,0-.828V7.23c0-.276,0-.552,0-.828,0-.233,0-.465.01-.7A10.119,10.119,0,0,1,.146,4.186,5.129,5.129,0,0,1,.621,2.743,4.853,4.853,0,0,1,2.743.621,5.109,5.109,0,0,1,4.186.146,10.12,10.12,0,0,1,5.7.012C5.936.006,6.169,0,6.4,0c.276,0,.552,0,.828,0H40.771c.276,0,.552,0,.828,0,.232,0,.465,0,.7.01a10.12,10.12,0,0,1,1.518.134,5.109,5.109,0,0,1,1.443.476,4.85,4.85,0,0,1,2.122,2.122,5.1,5.1,0,0,1,.476,1.443A10.12,10.12,0,0,1,47.988,5.7c.006.232.009.465.01.7,0,.276,0,.552,0,.828V40.77Z" transform="translate(502 121)"/><path class="g" d="M48,40.77c0,.276,0,.552,0,.828,0,.232,0,.465-.01.7a10.115,10.115,0,0,1-.134,1.518,5.106,5.106,0,0,1-.476,1.444,4.85,4.85,0,0,1-2.122,2.122,5.109,5.109,0,0,1-1.443.476,10.12,10.12,0,0,1-1.518.134c-.233.006-.465.009-.7.01-.276,0-.552,0-.828,0H7.23c-.276,0-.552,0-.828,0-.233,0-.465,0-.7-.01a10.12,10.12,0,0,1-1.518-.134,5.109,5.109,0,0,1-1.443-.476A4.853,4.853,0,0,1,.621,45.257a5.131,5.131,0,0,1-.476-1.444A10.114,10.114,0,0,1,.012,42.3C.006,42.064,0,41.831,0,41.6c0-.276,0-.552,0-.828V7.23c0-.276,0-.552,0-.828,0-.233,0-.465.01-.7A10.119,10.119,0,0,1,.146,4.186,5.129,5.129,0,0,1,.621,2.743,4.853,4.853,0,0,1,2.743.621,5.109,5.109,0,0,1,4.186.146,10.12,10.12,0,0,1,5.7.012C5.936.006,6.169,0,6.4,0c.276,0,.552,0,.828,0H40.771c.276,0,.552,0,.828,0,.232,0,.465,0,.7.01a10.12,10.12,0,0,1,1.518.134,5.109,5.109,0,0,1,1.443.476,4.85,4.85,0,0,1,2.122,2.122,5.1,5.1,0,0,1,.476,1.443A10.12,10.12,0,0,1,47.988,5.7c.006.232.009.465.01.7,0,.276,0,.552,0,.828V40.77Z" transform="translate(264 121)"/><path class="h" d="M48,40.77c0,.276,0,.552,0,.828,0,.232,0,.465-.01.7a10.115,10.115,0,0,1-.134,1.518,5.106,5.106,0,0,1-.476,1.444,4.85,4.85,0,0,1-2.122,2.122,5.109,5.109,0,0,1-1.443.476,10.12,10.12,0,0,1-1.518.134c-.233.006-.465.009-.7.01-.276,0-.552,0-.828,0H7.23c-.276,0-.552,0-.828,0-.233,0-.465,0-.7-.01a10.12,10.12,0,0,1-1.518-.134,5.109,5.109,0,0,1-1.443-.476A4.853,4.853,0,0,1,.621,45.257a5.131,5.131,0,0,1-.476-1.444A10.114,10.114,0,0,1,.012,42.3C.006,42.064,0,41.831,0,41.6c0-.276,0-.552,0-.828V7.23c0-.276,0-.552,0-.828,0-.233,0-.465.01-.7A10.119,10.119,0,0,1,.146,4.186,5.129,5.129,0,0,1,.621,2.743,4.853,4.853,0,0,1,2.743.621,5.109,5.109,0,0,1,4.186.146,10.12,10.12,0,0,1,5.7.012C5.936.006,6.169,0,6.4,0c.276,0,.552,0,.828,0H40.771c.276,0,.552,0,.828,0,.232,0,.465,0,.7.01a10.12,10.12,0,0,1,1.518.134,5.109,5.109,0,0,1,1.443.476,4.85,4.85,0,0,1,2.122,2.122,5.1,5.1,0,0,1,.476,1.443A10.12,10.12,0,0,1,47.988,5.7c.006.232.009.465.01.7,0,.276,0,.552,0,.828V40.77Z" transform="translate(422 121)"/><path class="i" d="M48,40.77c0,.276,0,.552,0,.828,0,.232,0,.465-.01.7a10.115,10.115,0,0,1-.134,1.518,5.106,5.106,0,0,1-.476,1.444,4.85,4.85,0,0,1-2.122,2.122,5.109,5.109,0,0,1-1.443.476,10.12,10.12,0,0,1-1.518.134c-.233.006-.465.009-.7.01-.276,0-.552,0-.828,0H7.23c-.276,0-.552,0-.828,0-.233,0-.465,0-.7-.01a10.12,10.12,0,0,1-1.518-.134,5.109,5.109,0,0,1-1.443-.476A4.853,4.853,0,0,1,.621,45.257a5.131,5.131,0,0,1-.476-1.444A10.114,10.114,0,0,1,.012,42.3C.006,42.064,0,41.831,0,41.6c0-.276,0-.552,0-.828V7.23c0-.276,0-.552,0-.828,0-.233,0-.465.01-.7A10.119,10.119,0,0,1,.146,4.186,5.129,5.129,0,0,1,.621,2.743,4.853,4.853,0,0,1,2.743.621,5.109,5.109,0,0,1,4.186.146,10.12,10.12,0,0,1,5.7.012C5.936.006,6.169,0,6.4,0c.276,0,.552,0,.828,0H40.771c.276,0,.552,0,.828,0,.232,0,.465,0,.7.01a10.12,10.12,0,0,1,1.518.134,5.109,5.109,0,0,1,1.443.476,4.85,4.85,0,0,1,2.122,2.122,5.1,5.1,0,0,1,.476,1.443A10.12,10.12,0,0,1,47.988,5.7c.006.232.009.465.01.7,0,.276,0,.552,0,.828V40.77Z" transform="translate(184 121)"/><path class="j" d="M48,40.77c0,.276,0,.552,0,.828,0,.232,0,.465-.01.7a10.115,10.115,0,0,1-.134,1.518,5.106,5.106,0,0,1-.476,1.444,4.85,4.85,0,0,1-2.122,2.122,5.109,5.109,0,0,1-1.443.476,10.12,10.12,0,0,1-1.518.134c-.233.006-.465.009-.7.01-.276,0-.552,0-.828,0H7.23c-.276,0-.552,0-.828,0-.233,0-.465,0-.7-.01a10.12,10.12,0,0,1-1.518-.134,5.109,5.109,0,0,1-1.443-.476A4.853,4.853,0,0,1,.621,45.257a5.131,5.131,0,0,1-.476-1.444A10.114,10.114,0,0,1,.012,42.3C.006,42.064,0,41.831,0,41.6c0-.276,0-.552,0-.828V7.23c0-.276,0-.552,0-.828,0-.233,0-.465.01-.7A10.119,10.119,0,0,1,.146,4.186,5.129,5.129,0,0,1,.621,2.743,4.853,4.853,0,0,1,2.743.621,5.109,5.109,0,0,1,4.186.146,10.12,10.12,0,0,1,5.7.012C5.936.006,6.169,0,6.4,0c.276,0,.552,0,.828,0H40.771c.276,0,.552,0,.828,0,.232,0,.465,0,.7.01a10.12,10.12,0,0,1,1.518.134,5.109,5.109,0,0,1,1.443.476,4.85,4.85,0,0,1,2.122,2.122,5.1,5.1,0,0,1,.476,1.443A10.12,10.12,0,0,1,47.988,5.7c.006.232.009.465.01.7,0,.276,0,.552,0,.828V40.77Z" transform="translate(104 121)"/><path class="k" d="M48,40.77c0,.276,0,.552,0,.828,0,.232,0,.465-.01.7a10.115,10.115,0,0,1-.134,1.518,5.106,5.106,0,0,1-.476,1.444,4.85,4.85,0,0,1-2.122,2.122,5.109,5.109,0,0,1-1.443.476,10.12,10.12,0,0,1-1.518.134c-.233.006-.465.009-.7.01-.276,0-.552,0-.828,0H7.23c-.276,0-.552,0-.828,0-.233,0-.465,0-.7-.01a10.12,10.12,0,0,1-1.518-.134,5.109,5.109,0,0,1-1.443-.476A4.853,4.853,0,0,1,.621,45.257a5.131,5.131,0,0,1-.476-1.444A10.114,10.114,0,0,1,.012,42.3C.006,42.064,0,41.831,0,41.6c0-.276,0-.552,0-.828V7.23c0-.276,0-.552,0-.828,0-.233,0-.465.01-.7A10.119,10.119,0,0,1,.146,4.186,5.129,5.129,0,0,1,.621,2.743,4.853,4.853,0,0,1,2.743.621,5.109,5.109,0,0,1,4.186.146,10.12,10.12,0,0,1,5.7.012C5.936.006,6.169,0,6.4,0c.276,0,.552,0,.828,0H40.771c.276,0,.552,0,.828,0,.232,0,.465,0,.7.01a10.12,10.12,0,0,1,1.518.134,5.109,5.109,0,0,1,1.443.476,4.85,4.85,0,0,1,2.122,2.122,5.1,5.1,0,0,1,.476,1.443A10.12,10.12,0,0,1,47.988,5.7c.006.232.009.465.01.7,0,.276,0,.552,0,.828V40.77Z" transform="translate(24 121)"/></g></g><text class="l" transform="translate(553 37)"><tspan x="-115.238" y="0" xml:space="preserve">Must  Have Music</tspan></text><text class="m" transform="translate(24 37)"><tspan x="0" y="0">Website Colors</tspan></text></g></svg>