<svg xmlns="http://www.w3.org/2000/svg" xmlns:xlink="http://www.w3.org/1999/xlink" viewBox="0 0 1440 900"><defs><style>.a{clip-path:url(#f);}.b,.g{fill:#04040c;}.b{opacity:0.49;}.c,.n{fill:#191919;}.d{fill:red;}.e,.f,.h{fill:#f1f9ff;}.e,.n{font-size:10px;}.e,.h,.n{font-family:Arial-BoldMT, Arial;font-weight:700;}.f{stroke:#bce0fd;stroke-width:2px;}.g,.h{font-size:14px;}.g,.l{font-family:ArialMT, Arial;}.i{fill:none;}.j{fill:#262424;}.k,.l{fill:#fff;}.k{stroke:red;stroke-linecap:round;stroke-width:3px;}.l{font-size:18px;}.m{fill:#242424;}.o{stroke:none;}.p{filter:url(#c);}.q{filter:url(#a);}</style><filter id="a" x="310.5" y="90.5" width="820" height="649" filterUnits="userSpaceOnUse"><feOffset input="SourceAlpha"/><feGaussianBlur stdDeviation="49.5" result="b"/><feFlood flood-color="red" flood-opacity="0.2"/><feComposite operator="in" in2="b"/><feComposite in="SourceGraphic"/></filter><filter id="c" x="457.5" y="186" width="526" height="56.5" filterUnits="userSpaceOnUse"><feOffset dy="2" input="SourceAlpha"/><feGaussianBlur stdDeviation="0.5" result="d"/><feFlood flood-color="red" flood-opacity="0.2"/><feComposite operator="in" in2="d"/><feComposite in="SourceGraphic"/></filter><clipPath id="f"><rect width="1440" height="900"/></clipPath></defs><g id="e" class="a"><path class="b" d="M0,0H1440V900H0Z"/><g class="q" transform="matrix(1, 0, 0, 1, 0, 0)"><path class="c" d="M0,0H523V352H0Z" transform="translate(459 239)"/></g><g class="p" transform="matrix(1, 0, 0, 1, 0, 0)"><path class="c" d="M0,0H523V53H0Z" transform="translate(459 186)"/></g><g transform="translate(0 -120)"><rect class="d" width="120" height="40" rx="4" transform="translate(779 616)"/><text class="e" transform="translate(839 640)"><tspan x="-18.613" y="0">SIGN IN</tspan></text></g><g transform="translate(319 70)"><g class="f" transform="translate(220 220)"><rect class="o" width="360" height="50" rx="10"/><rect class="i" x="1" y="1" width="358" height="48" rx="9"/></g><text class="g" transform="translate(240 250)"><tspan x="0" y="0">address@mail.com</tspan></text><text class="h" transform="translate(220 209)"><tspan x="0" y="0">E-mail</tspan></text></g><g transform="translate(319 70)"><g class="f" transform="translate(220 330)"><rect class="o" width="360" height="50" rx="10"/><rect class="i" x="1" y="1" width="358" height="48" rx="9"/></g><text class="g" transform="translate(240 360)"><tspan x="0" y="0">●●●●●●●</tspan></text><text class="h" transform="translate(220 319)"><tspan x="0" y="0">Password</tspan></text><rect class="i" width="16" height="16" transform="translate(544 347)"/><path class="j" d="M6.345,11.034,0,4.69,1.287,3.4,6.345,8.368,14.713,0,16,1.287Z" transform="translate(544 349)"/></g><path class="k" d="M7.778,9.192,1.414,15.557,0,14.142,6.364,7.778,0,1.414,1.414,0,7.778,6.364,14.142,0l1.415,1.414L9.192,7.778l6.364,6.364-1.415,1.415Z" transform="translate(934 204.5)"/><text class="l" transform="translate(539 219)"><tspan x="0" y="0">SIGN IN</tspan></text><rect class="m" width="182" height="40" rx="4" transform="translate(539 496)"/><text class="n" transform="translate(630 520)"><tspan x="-68.608" y="0">CONNECT WITH FACEBOOK</tspan></text></g></svg>