<svg xmlns="http://www.w3.org/2000/svg" xmlns:xlink="http://www.w3.org/1999/xlink" viewBox="0 0 1440 900"><defs><style>.a{clip-path:url(#f);}.b{fill:#04040c;opacity:0.49;}.c,.e,.h{fill:#191919;}.d{fill:#f1f9ff;}.e{font-size:10px;font-family:Arial-BoldMT, Arial;font-weight:700;}.f,.g{fill:#fff;}.f{stroke:red;stroke-linecap:round;stroke-width:3px;}.g{font-size:18px;}.g,.h{font-family:ArialMT, Arial;}.h{font-size:14px;}.i{filter:url(#c);}.j{filter:url(#a);}</style><filter id="a" x="310.5" y="90.5" width="820" height="550.6" filterUnits="userSpaceOnUse"><feOffset input="SourceAlpha"/><feGaussianBlur stdDeviation="49.5" result="b"/><feFlood flood-color="red" flood-opacity="0.2"/><feComposite operator="in" in2="b"/><feComposite in="SourceGraphic"/></filter><filter id="c" x="457.5" y="186" width="526" height="56.5" filterUnits="userSpaceOnUse"><feOffset dy="2" input="SourceAlpha"/><feGaussianBlur stdDeviation="0.5" result="d"/><feFlood flood-color="red" flood-opacity="0.2"/><feComposite operator="in" in2="d"/><feComposite in="SourceGraphic"/></filter><clipPath id="f"><rect width="1440" height="900"/></clipPath></defs><g id="e" class="a"><path class="b" d="M0,0H1440V900H0Z"/><g class="j" transform="matrix(1, 0, 0, 1, 0, 0)"><path class="c" d="M0,0H523V253.6H0Z" transform="translate(459 239)"/></g><g class="i" transform="matrix(1, 0, 0, 1, 0, 0)"><path class="c" d="M0,0H523V53H0Z" transform="translate(459 186)"/></g><g transform="translate(-7)"><path class="d" d="M4,0H116a4,4,0,0,1,4,4V36a4,4,0,0,1-4,4H4a4,4,0,0,1-4-4V4A4,4,0,0,1,4,0Z" transform="translate(787 385)"/><text class="e" transform="translate(847 409)"><tspan x="-10.833" y="0">ADD</tspan></text></g><path class="f" d="M7.778,9.192,1.414,15.557,0,14.142,6.364,7.778,0,1.414,1.414,0,7.778,6.364,14.142,0l1.415,1.414L9.192,7.778l6.364,6.364-1.415,1.415Z" transform="translate(934 204.5)"/><text class="g" transform="translate(539 219)"><tspan x="0" y="0">ADD NEW PLAYLIST</tspan></text><g transform="translate(-317 -40)"><rect class="d" width="360" height="50" rx="10" transform="translate(857 330)"/><text class="h" transform="translate(877 360)"><tspan x="0" y="0">New Playlist name</tspan></text></g></g></svg>