<svg xmlns="http://www.w3.org/2000/svg" xmlns:xlink="http://www.w3.org/1999/xlink" viewBox="0 0 1440 900"><defs><style>.a{clip-path:url(#f);}.b{fill:#04040c;opacity:0.49;}.c,.e,.i{fill:#191919;}.d{fill:#242424;}.e{font-size:10px;font-family:Arial-BoldMT, Arial;font-weight:700;}.f,.g,.j{fill:#fff;}.f{stroke:red;stroke-linecap:round;stroke-width:3px;}.g{font-size:18px;}.g,.i{font-family:ArialMT, Arial;}.h{fill:#f1f9ff;}.i{font-size:14px;}.k,.n{fill:#e4e4e4;}.l{fill:#262424;stroke:#f0f0f0;}.m,.n{stroke:none;}.o{fill:none;}.p{filter:url(#c);}.q{filter:url(#a);}</style><filter id="a" x="310.5" y="90.5" width="820" height="693.668" filterUnits="userSpaceOnUse"><feOffset input="SourceAlpha"/><feGaussianBlur stdDeviation="49.5" result="b"/><feFlood flood-color="red" flood-opacity="0.2"/><feComposite operator="in" in2="b"/><feComposite in="SourceGraphic"/></filter><filter id="c" x="457.5" y="186" width="526" height="56.5" filterUnits="userSpaceOnUse"><feOffset dy="2" input="SourceAlpha"/><feGaussianBlur stdDeviation="0.5" result="d"/><feFlood flood-color="red" flood-opacity="0.2"/><feComposite operator="in" in2="d"/><feComposite in="SourceGraphic"/></filter><clipPath id="f"><rect width="1440" height="900"/></clipPath></defs><g id="e" class="a"><path class="b" d="M0,0H1440V900H0Z"/><g class="q" transform="matrix(1, 0, 0, 1, 0, 0)"><path class="c" d="M0,0H523V396.668H0Z" transform="translate(459 239)"/></g><g class="p" transform="matrix(1, 0, 0, 1, 0, 0)"><path class="c" d="M0,0H523V53H0Z" transform="translate(459 186)"/></g><path class="d" d="M4,0H116a4,4,0,0,1,4,4V36a4,4,0,0,1-4,4H4a4,4,0,0,1-4-4V4A4,4,0,0,1,4,0Z" transform="translate(780 545)"/><text class="e" transform="translate(840 569)"><tspan x="-10.833" y="0">ADD</tspan></text><path class="f" d="M7.778,9.192,1.414,15.557,0,14.142,6.364,7.778,0,1.414,1.414,0,7.778,6.364,14.142,0l1.415,1.414L9.192,7.778l6.364,6.364-1.415,1.415Z" transform="translate(934 204.5)"/><text class="g" transform="translate(539 219)"><tspan x="0" y="0">SELECT PLAYLIST</tspan></text><g transform="translate(-317 -40)"><rect class="h" width="360" height="50" rx="10" transform="translate(857 330)"/><text class="i" transform="translate(877 360)"><tspan x="0" y="0">NEW +</tspan></text><rect class="j" width="360" height="150" rx="10" transform="translate(857 390)"/><rect class="j" width="356" height="48" transform="translate(859 442)"/><rect class="c" width="360" height="2" transform="translate(857 440)"/><rect class="c" width="360" height="2" transform="translate(857 490)"/><text class="i" transform="translate(877 420)"><tspan x="0" y="0">Playlist 1</tspan></text><text class="i" transform="translate(877 470)"><tspan x="0" y="0">Playlist 2</tspan></text><text class="i" transform="translate(877 520)"><tspan x="0" y="0">Playlist 3</tspan></text></g><g transform="translate(1510.199 -506.068) rotate(90)"><g class="k" transform="translate(857 590)"><path class="m" d="M 147.7804412841797 11.80004405975342 L 1.287937879562378 11.80004405975342 C 1.147809147834778 10.93728065490723 0.9999997019767761 9.046457290649414 0.9999997019767761 6.4000244140625 C 0.9999997019767761 3.753591299057007 1.147809147834778 1.862768411636353 1.287937879562378 1.000004410743713 L 147.7804412841797 1.000004410743713 C 147.9205627441406 1.862758994102478 148.068359375 3.753575563430786 148.068359375 6.4000244140625 C 148.068359375 9.046473503112793 147.9205627441406 10.93729019165039 147.7804412841797 11.80004405975342 Z"/><path class="n" d="M 2.174301147460938 2.000004768371582 C 2.084213256835938 2.932647705078125 2 4.406412124633789 2 6.4000244140625 C 2 8.393636703491211 2.084213256835938 9.867401123046875 2.174301147460938 10.80004405975342 L 146.8940582275391 10.80004405975342 C 146.984130859375 9.867391586303711 147.068359375 8.393624305725098 147.068359375 6.4000244140625 C 147.068359375 4.406424522399902 146.984130859375 2.932657241821289 146.8940582275391 2.000004768371582 L 2.174301147460938 2.000004768371582 M 0.60260009765625 4.76837158203125e-06 L 148.4657745361328 4.76837158203125e-06 C 148.7985534667969 4.76837158203125e-06 149.068359375 2.865384101867676 149.068359375 6.4000244140625 C 149.068359375 9.934664726257324 148.7985534667969 12.80004405975342 148.4657745361328 12.80004405975342 L 0.60260009765625 12.80004405975342 C 0.269775390625 12.80004405975342 0 9.934664726257324 0 6.4000244140625 C 0 2.865384101867676 0.269775390625 4.76837158203125e-06 0.60260009765625 4.76837158203125e-06 Z"/></g><g class="l" transform="translate(857 590)"><rect class="m" width="64" height="12.8" rx="6.4"/><rect class="o" x="0.5" y="0.5" width="63" height="11.8" rx="5.9"/></g></g></g></svg>