<svg xmlns="http://www.w3.org/2000/svg" xmlns:xlink="http://www.w3.org/1999/xlink" viewBox="0 0 575 1290"><defs><style>.a{clip-path:url(#b);}.b,.m{fill:#2699fb;}.b,.d,.i,.m{font-size:14px;}.b,.c,.d,.e,.g,.m{font-family:ArialMT, Arial;}.c,.h{fill:#b4b4b4;font-size:12px;}.d,.e,.f,.g,.i,.j,.k,.l{fill:#7f7f7f;}.e,.j{font-size:20px;}.f,.g{font-size:10px;}.f,.i,.k{font-family:Arial-BoldMT, Arial;}.f,.i,.k,.l{font-weight:700;}.h{font-family:Arial-ItalicMT, Arial;}.h,.j{font-style:italic;}.j{font-family:Georgia-Italic, Georgia;}.k{font-size:30px;}.l{font-size:40px;font-family:Georgia-Bold, Georgia;}.m{letter-spacing:0.019em;}.n{fill:#eaeaea;}</style><clipPath id="b"><rect width="575" height="1290"/></clipPath></defs><g id="a" class="a"><rect class="n" width="575" height="1290"/><text class="b" transform="translate(24 1146)"><tspan x="0" y="0">Small Body</tspan></text><text class="c" transform="translate(24 1159)"><tspan x="0" y="11">Excepteur sint occaecat cupidatat non proident, sunt in culpa </tspan><tspan x="0" y="29">qui officia deserunt mollit anim id est eopksio laborum. Sed ut </tspan><tspan x="0" y="47">perspiciatis unde omnis istpoe natus error sit voluptatem </tspan><tspan x="0" y="65">accusantium doloremque eopsloi laudantium, totam rem </tspan></text><text class="b" transform="translate(24 998)"><tspan x="0" y="0">Body</tspan></text><text class="d" transform="translate(24 1011)"><tspan x="0" y="13">Excepteur sint occaecat cupidatat non proident, sunt in </tspan><tspan x="0" y="37">culpa qui officia deserunt mollit anim id est eopksio </tspan><tspan x="0" y="61">laborum. Sed ut perspiciatis unde omnis istpoe natus </tspan><tspan x="0" y="85">error sit voluptatem accusantium doloremque eopsloi </tspan></text><text class="b" transform="translate(24 825)"><tspan x="0" y="0">Large Body</tspan></text><text class="e" transform="translate(24 838)"><tspan x="0" y="18">Excepteur sint occaecat cupidatat non </tspan><tspan x="0" y="48">proident, sunt in culpa qui officia </tspan><tspan x="0" y="78">deserunt mollit anim id est eopksio </tspan><tspan x="0" y="108">laborum. Sed ut perspiciatis unde </tspan></text><text class="b" transform="translate(24 778)"><tspan x="0" y="0">Paragraph Styles</tspan></text><g transform="translate(-30 237)"><text class="f" transform="translate(54 439)"><tspan x="0" y="0">BUTTON</tspan></text><text class="g" transform="translate(54 458)"><tspan x="0" y="0">Bold 10pt</tspan></text></g><g transform="translate(-30 148)"><text class="h" transform="translate(54 472)"><tspan x="0" y="0">Placeholder</tspan></text><text class="g" transform="translate(54 492)"><tspan x="0" y="0">Italic 12pt</tspan></text></g><g transform="translate(-28 163)"><text class="c" transform="translate(52 400)"><tspan x="0" y="0">Secondary Body</tspan></text><text class="g" transform="translate(52 420)"><tspan x="0" y="0">Regular 12pt</tspan></text></g><g transform="translate(-28 146)"><text class="d" transform="translate(52 359)"><tspan x="0" y="0">Body</tspan></text><text class="g" transform="translate(52 379)"><tspan x="0" y="0">Regular 14pt</tspan></text></g><g transform="translate(-28 130)"><text class="i" transform="translate(52 315)"><tspan x="0" y="0">Large Body</tspan></text><text class="g" transform="translate(52 335)"><tspan x="0" y="0">Bold 14pt</tspan></text></g><g transform="translate(-28 125)"><text class="j" transform="translate(52 259)"><tspan x="0" y="0">Quote</tspan></text><text class="g" transform="translate(52 280)"><tspan x="0" y="0">Italic 20pt</tspan></text></g><g transform="translate(-28 87)"><text class="e" transform="translate(101 232)"><tspan x="-48.931" y="0">Subheader</tspan></text><text class="g" transform="translate(52 253)"><tspan x="0" y="0">Regular 20pt</tspan></text></g><g transform="translate(-28 71)"><text class="k" transform="translate(52 180)"><tspan x="0" y="0">Title</tspan></text><text class="g" transform="translate(52 203)"><tspan x="0" y="0">Bold 30pt</tspan></text></g><g transform="translate(-28 54)"><text class="l" transform="translate(52 117)"><tspan x="0" y="0">Headline</tspan></text><text class="g" transform="translate(52 143)"><tspan x="0" y="0">Bold 40pt</tspan></text></g><text class="b" transform="translate(24 121)"><tspan x="0" y="0">Character Styles</tspan></text><text class="m" transform="translate(399 37)"><tspan x="-121.465" y="0">Wireframe Web Kit</tspan></text><text class="b" transform="translate(24 37)"><tspan x="0" y="0">Typography</tspan></text></g></svg>